<svg width="36" height="20" viewBox="0 0 36 20" fill="none" xmlns="http://www.w3.org/2000/svg">
<circle cx="26" cy="10" r="10" fill="#2A2827"/>
<g clip-path="url(#clip0_1760_108957)">
<path d="M26 20C31.5228 20 36 15.5228 36 10C36 4.47715 31.5228 0 26 0C20.4772 0 16 4.47715 16 10C16 15.5228 20.4772 20 26 20Z" fill="#627EEA"/>
<path d="M26.0537 4.34766V8.52643L29.5857 10.1047L26.0537 4.34766Z" fill="white" fill-opacity="0.602"/>
<path d="M26.0539 4.34766L22.5215 10.1047L26.0539 8.52643V4.34766Z" fill="white"/>
<path d="M26.0537 12.812V15.6514L29.588 10.7617L26.0537 12.812Z" fill="white" fill-opacity="0.602"/>
<path d="M26.0539 15.6514V12.8115L22.5215 10.7617L26.0539 15.6514Z" fill="white"/>
<path d="M26.0537 12.1554L29.5857 10.1046L26.0537 8.52734V12.1554Z" fill="white" fill-opacity="0.2"/>
<path d="M22.5215 10.1046L26.0539 12.1554V8.52734L22.5215 10.1046Z" fill="white" fill-opacity="0.602"/>
</g>
<g clip-path="url(#clip1_1760_108957)">
<circle cx="10" cy="10" r="10" fill="#2A2827"/>
<path d="M14.5417 9.81063L11.0577 5.04142C10.7981 4.68594 10.3969 4.48242 9.9567 4.48242C9.51649 4.48242 9.11529 4.68639 8.85573 5.04142L5.37173 9.81063C4.87594 10.4893 4.87594 11.4011 5.37263 12.0811L5.57704 12.3577L5.57749 12.3573L7.37598 14.8345C7.63553 15.1899 8.03673 15.3935 8.47694 15.3935C8.83556 15.3935 9.16863 15.2581 9.42011 15.0151L9.43715 15.0277L9.96118 14.3104L10.344 14.834C10.3454 14.8363 10.3471 14.838 10.3485 14.8398L10.4547 14.9855L10.465 14.9779C10.7201 15.2433 11.068 15.393 11.4445 15.393C11.8843 15.393 12.2855 15.189 12.5459 14.8331L13.9092 12.9553L13.9105 12.9562L14.1364 12.6419L14.3951 12.286L14.3933 12.2847L14.5412 12.0785C15.0379 11.4011 15.0379 10.4893 14.5417 9.81063ZM9.41205 5.44756C9.5407 5.27184 9.73929 5.17097 9.9567 5.17097C10.1746 5.17097 10.3731 5.27184 10.5014 5.44756L11.0101 6.14373L9.96118 7.57956L8.90773 6.13746L9.41205 5.44756ZM9.02249 14.4292L9.02205 14.4288C8.89339 14.6045 8.6948 14.7054 8.47739 14.7054C8.25953 14.7054 8.06094 14.6045 7.93318 14.4297L6.0836 11.8826L6.0827 11.8835L5.92804 11.6741C5.60977 11.2384 5.60977 10.6529 5.92804 10.2172L8.48187 6.72156L9.53532 8.16366L8.3317 9.81108C7.83591 10.4898 7.83591 11.4016 8.3317 12.0802L9.53532 13.7277L9.02249 14.4292ZM9.96118 8.74687L11.0353 10.2168C11.3535 10.6525 11.3535 11.2379 11.0353 11.6737L9.96118 13.1436L8.88711 11.6737C8.56884 11.2379 8.56884 10.6525 8.88711 10.2168L9.96118 8.74687ZM11.9896 14.4288C11.861 14.6045 11.6624 14.7054 11.445 14.7054C11.2298 14.7054 11.0335 14.6067 10.9048 14.4346L10.3879 13.7272L11.5916 12.0798C12.0874 11.4011 12.0874 10.4893 11.5916 9.81063L10.3879 8.16322L11.4369 6.72739L13.9863 10.2168C14.3045 10.6525 14.3045 11.2379 13.9849 11.6759L13.5806 12.238L11.9896 14.4288Z" fill="url(#paint0_linear_1760_108957)"/>
<path opacity="0.6" d="M9.52591 13.7246L9.96074 14.3186L9.29953 15.2062L8.86426 14.6292L9.52591 13.7246Z" fill="url(#paint1_linear_1760_108957)"/>
<path d="M9.53265 8.16406L9.95582 8.7522L8.96827 10.1172L8.42676 9.68954L9.53265 8.16406Z" fill="url(#paint2_linear_1760_108957)"/>
<path d="M13.53 8.42612L11.9835 6.29771L11.9866 6.29457L11.415 5.51367C11.5984 5.77053 11.6858 5.97674 11.6697 6.17398C11.6549 6.35419 11.5961 6.4936 11.5419 6.58729L11.4401 6.72715L11.5038 6.81815L11.5051 6.81636L12.9889 8.85378L13.53 8.42612Z" fill="url(#paint3_linear_1760_108957)"/>
<path d="M6.39062 8.42612L7.93718 6.29771L7.93404 6.29457L8.50559 5.51367C8.32225 5.77053 8.23483 5.97674 8.25097 6.17398C8.26576 6.35419 8.32449 6.4936 8.37873 6.58729L8.48049 6.72715L8.41683 6.81815L8.41549 6.81636L6.93169 8.85378L6.39062 8.42612Z" fill="url(#paint4_linear_1760_108957)"/>
</g>
<defs>
<linearGradient id="paint0_linear_1760_108957" x1="6.57824" y1="14.0606" x2="13.3394" y2="7.29948" gradientUnits="userSpaceOnUse">
<stop stop-color="#FF8506"/>
<stop offset="0.5805" stop-color="#FD3947"/>
<stop offset="1" stop-color="#FB0078"/>
</linearGradient>
<linearGradient id="paint1_linear_1760_108957" x1="9.10558" y1="14.9156" x2="9.99319" y2="13.6389" gradientUnits="userSpaceOnUse">
<stop stop-color="#FF7E0D" stop-opacity="0"/>
<stop offset="0.0133" stop-color="#F97910" stop-opacity="0.0192"/>
<stop offset="0.1144" stop-color="#D25427" stop-opacity="0.1659"/>
<stop offset="0.219" stop-color="#B1363A" stop-opacity="0.3175"/>
<stop offset="0.3263" stop-color="#981E48" stop-opacity="0.4731"/>
<stop offset="0.4375" stop-color="#860D53" stop-opacity="0.6344"/>
<stop offset="0.5551" stop-color="#7B0359" stop-opacity="0.8048"/>
<stop offset="0.6897" stop-color="#78005B"/>
</linearGradient>
<linearGradient id="paint2_linear_1760_108957" x1="8.56429" y1="9.82674" x2="9.87986" y2="8.51117" gradientUnits="userSpaceOnUse">
<stop stop-color="#FF4630" stop-opacity="0"/>
<stop offset="0.5722" stop-color="#B31F48" stop-opacity="0.5722"/>
<stop offset="1" stop-color="#78005B"/>
</linearGradient>
<linearGradient id="paint3_linear_1760_108957" x1="13.121" y1="8.47432" x2="11.505" y2="6.1958" gradientUnits="userSpaceOnUse">
<stop stop-color="#FB126A" stop-opacity="0"/>
<stop offset="0.1389" stop-color="#F41169" stop-opacity="0.1389"/>
<stop offset="0.3365" stop-color="#E20F67" stop-opacity="0.3365"/>
<stop offset="0.5694" stop-color="#C30A64" stop-opacity="0.5694"/>
<stop offset="0.827" stop-color="#99045F" stop-opacity="0.827"/>
<stop offset="1" stop-color="#78005B"/>
</linearGradient>
<linearGradient id="paint4_linear_1760_108957" x1="6.79982" y1="8.47432" x2="8.4158" y2="6.1958" gradientUnits="userSpaceOnUse">
<stop stop-color="#FB126A" stop-opacity="0"/>
<stop offset="0.1389" stop-color="#F41169" stop-opacity="0.1389"/>
<stop offset="0.3365" stop-color="#E20F67" stop-opacity="0.3365"/>
<stop offset="0.5694" stop-color="#C30A64" stop-opacity="0.5694"/>
<stop offset="0.827" stop-color="#99045F" stop-opacity="0.827"/>
<stop offset="1" stop-color="#78005B"/>
</linearGradient>
<clipPath id="clip0_1760_108957">
<rect width="20" height="20" fill="white" transform="translate(16)"/>
</clipPath>
<clipPath id="clip1_1760_108957">
<rect width="20" height="20" fill="white"/>
</clipPath>
</defs>
</svg>
