<svg width="1024" height="1024" viewBox="0 0 1024 1024" fill="none" xmlns="http://www.w3.org/2000/svg">
<circle cx="512" cy="512" r="512" fill="#171717"/>
<path d="M288.001 435.886C307.112 404.76 347.362 398.382 372.178 436.743L443.797 557.946H398.784L324.512 436.743C311.99 420.446 302.704 419.034 288.001 435.886Z" fill="white"/>
<path d="M288.001 435.886C307.112 404.76 347.362 398.382 372.178 436.743L443.797 557.946H398.784L324.512 436.743C311.99 420.446 302.704 419.034 288.001 435.886Z" fill="url(#paint0_linear_2396_52577)"/>
<path d="M288.001 435.886C307.112 404.76 347.362 398.382 372.178 436.743L443.797 557.946H398.784L324.512 436.743C311.99 420.446 302.704 419.034 288.001 435.886Z" fill="url(#paint1_linear_2396_52577)"/>
<path d="M371.501 435.715C352.501 404.215 308.641 398.382 283.824 436.742L213.387 555.946H258.443L331.49 436.742C343 420 356.798 418.864 371.501 435.715Z" fill="white"/>
<path d="M371.501 435.715C352.501 404.215 308.641 398.382 283.824 436.742L213.387 555.946H258.443L331.49 436.742C343 420 356.798 418.864 371.501 435.715Z" fill="url(#paint2_linear_2396_52577)"/>
<path d="M387 238.447L576 557.947H531L335 238.447C316 208.947 298.773 207.441 273 236.947C312.5 182.447 343.5 171.28 387 238.447Z" fill="white"/>
<path d="M387 238.447L576 557.947H531L335 238.447C316 208.947 298.773 207.441 273 236.947C312.5 182.447 343.5 171.28 387 238.447Z" fill="url(#paint3_linear_2396_52577)"/>
<path d="M387 238.447L576 557.947H531L335 238.447C316 208.947 298.773 207.441 273 236.947C312.5 182.447 343.5 171.28 387 238.447Z" fill="url(#paint4_linear_2396_52577)"/>
<path d="M270 238.447L81 557.947H126L322 238.447C340.5 209 360.227 207.441 386 236.947C352.5 182.447 313.5 171.28 270 238.447Z" fill="white"/>
<path d="M270 238.447L81 557.947H126L322 238.447C340.5 209 360.227 207.441 386 236.947C352.5 182.447 313.5 171.28 270 238.447Z" fill="url(#paint5_linear_2396_52577)"/>
<mask id="mask0_2396_52577" style="mask-type:alpha" maskUnits="userSpaceOnUse" x="0" y="0" width="1024" height="1024">
<circle cx="512" cy="512" r="512" fill="#171717"/>
</mask>
<g mask="url(#mask0_2396_52577)">
<path d="M876 -45L1559.29 1060.5H192.706L876 -45Z" fill="#009DF5" fill-opacity="0.8"/>
<path d="M725.484 355.079L724.084 441.494L678.387 440.754L679.787 354.339L725.484 355.079ZM712.171 833.344L710.894 912.143L665.197 911.403L666.473 832.604L712.171 833.344ZM745.949 737.785C746.129 726.654 744.232 717.149 740.258 709.271C736.479 701.397 730.146 694.36 721.261 688.16C712.571 681.964 700.754 675.912 685.808 670.006C660.579 659.83 638.387 649.118 619.23 637.868C600.272 626.427 585.556 612.417 575.081 595.839C564.609 579.066 559.579 557.986 559.99 532.598C560.382 508.383 566.483 487.483 578.293 469.898C590.103 452.314 606.24 438.901 626.705 429.661C647.368 420.229 671.272 415.733 698.417 416.173C719.117 416.508 737.814 419.936 754.508 426.457C771.204 432.783 785.51 442 797.425 454.109C809.343 466.022 818.387 480.526 824.556 497.621C830.725 514.715 833.633 534.198 833.278 556.07L749.207 554.709C749.397 542.991 748.295 532.621 745.902 523.596C743.509 514.572 739.92 506.993 735.136 500.86C730.547 494.73 724.957 490.147 718.364 487.11C711.775 483.878 704.477 482.197 696.471 482.068C684.558 481.875 674.756 484.06 667.064 488.623C659.372 493.187 653.703 499.444 650.058 507.394C646.612 515.151 644.806 524.108 644.642 534.262C644.481 544.222 646.097 552.941 649.492 560.419C653.083 567.9 659.319 574.837 668.201 581.232C677.086 587.432 689.288 593.88 704.806 600.578C730.035 610.753 752.127 621.659 771.082 633.296C790.037 644.932 804.752 659.04 815.227 675.618C825.702 692.196 830.734 713.179 830.322 738.566C829.914 763.758 823.708 785.144 811.703 802.726C799.701 820.112 783.079 833.321 761.836 842.353C740.596 851.19 716.111 855.384 688.38 854.935C670.414 854.644 652.583 852.011 634.888 847.036C617.196 841.866 601.211 833.794 586.934 822.819C572.657 811.844 561.366 797.401 553.061 779.491C544.759 761.386 540.82 739.249 541.244 713.08L625.608 714.447C625.377 728.703 627.039 740.645 630.595 750.274C634.154 759.708 638.914 767.306 644.876 773.067C651.037 778.636 658.004 782.656 665.777 785.126C673.551 787.596 681.441 788.896 689.448 789.025C701.946 789.228 712.235 787.148 720.315 782.786C728.589 778.427 734.841 772.376 739.068 764.63C743.494 756.693 745.788 747.745 745.949 737.785Z" fill="white"/>
</g>
<defs>
<linearGradient id="paint0_linear_2396_52577" x1="449.231" y1="600.231" x2="319.742" y2="468.439" gradientUnits="userSpaceOnUse">
<stop stop-color="#FF8506"/>
<stop offset="0.5805" stop-color="#FD3947"/>
<stop offset="1" stop-color="#FB0078"/>
</linearGradient>
<linearGradient id="paint1_linear_2396_52577" x1="442.853" y1="595.472" x2="358.304" y2="422.516" gradientUnits="userSpaceOnUse">
<stop stop-color="#FB126A" stop-opacity="0"/>
<stop offset="0.1389" stop-color="#F41169" stop-opacity="0.1389"/>
<stop offset="0.3365" stop-color="#E20F67" stop-opacity="0.3365"/>
<stop offset="0.5694" stop-color="#C30A64" stop-opacity="0.5694"/>
<stop offset="0.827" stop-color="#99045F" stop-opacity="0.827"/>
<stop offset="1" stop-color="#78005B"/>
</linearGradient>
<linearGradient id="paint2_linear_2396_52577" x1="238.725" y1="542.689" x2="327.676" y2="435.924" gradientUnits="userSpaceOnUse">
<stop stop-color="#FF8506"/>
<stop offset="0.5805" stop-color="#FD3947"/>
<stop offset="1" stop-color="#FB0078"/>
</linearGradient>
<linearGradient id="paint3_linear_2396_52577" x1="527.443" y1="524.705" x2="301.522" y2="317.461" gradientUnits="userSpaceOnUse">
<stop stop-color="#FF8506"/>
<stop offset="0.5805" stop-color="#FD3947"/>
<stop offset="1" stop-color="#FB0078"/>
</linearGradient>
<linearGradient id="paint4_linear_2396_52577" x1="517.377" y1="516.373" x2="360.132" y2="226.454" gradientUnits="userSpaceOnUse">
<stop stop-color="#FB126A" stop-opacity="0"/>
<stop offset="0.1389" stop-color="#F41169" stop-opacity="0.1389"/>
<stop offset="0.3365" stop-color="#E20F67" stop-opacity="0.3365"/>
<stop offset="0.5694" stop-color="#C30A64" stop-opacity="0.5694"/>
<stop offset="0.827" stop-color="#99045F" stop-opacity="0.827"/>
<stop offset="1" stop-color="#78005B"/>
</linearGradient>
<linearGradient id="paint5_linear_2396_52577" x1="129.877" y1="524.705" x2="355.922" y2="315.979" gradientUnits="userSpaceOnUse">
<stop stop-color="#FF8506"/>
<stop offset="0.5805" stop-color="#FD3947"/>
<stop offset="1" stop-color="#FB0078"/>
</linearGradient>
</defs>
</svg>
