<svg width="192" height="160" viewBox="0 0 192 160" fill="none" xmlns="http://www.w3.org/2000/svg">
  <circle opacity="0.64" cx="110.068" cy="79.1569" r="72.1569" fill="#F1F1F1"/>
  <g clip-path="url(#clip0)">
    <path
      d="M88.4135 102.342C88.4135 96.9328 91.7433 92.6621 96.7577 89.7278C95.855 86.7089 94.658 83.8169 93.1851 81.0934C87.5624 82.5651 83.0107 80.3621 79.1851 76.5365C75.3595 72.7109 74.1883 68.1582 75.6601 62.5365C72.9386 61.0627 70.0466 59.8656 67.0256 58.9629C64.0903 63.9783 58.7888 67.3072 53.3788 67.3072C47.9699 67.3072 42.6684 63.9783 39.7321 58.9629C36.7131 59.8646 33.8212 61.0627 31.0986 62.5344C32.5694 68.1572 31.3992 72.7099 27.5736 76.5365C23.748 80.3621 19.1953 82.5651 13.5726 81.0954C12.0997 83.8159 10.9027 86.7078 10 89.7278C15.0144 92.6621 18.3442 96.9328 18.3442 102.342C18.3442 107.751 15.0144 113.053 10 115.988C10.9027 119.008 12.0997 121.899 13.5726 124.623C19.1953 123.151 23.748 124.322 27.5736 128.148C31.3982 131.975 32.5694 136.525 31.0986 142.148C33.8212 143.62 36.7131 144.819 39.7331 145.72C42.6694 140.705 47.9699 137.374 53.3788 137.374C58.7888 137.374 64.0903 140.705 67.0256 145.72C70.0466 144.817 72.9386 143.62 75.6611 142.146C74.1904 136.525 75.3595 131.974 79.1851 128.147C83.0107 124.321 87.5624 122.117 93.1851 123.589C94.658 120.866 95.855 117.974 96.7577 114.954C91.7433 112.02 88.4135 107.751 88.4135 102.342ZM53.3788 121.207C42.9607 121.207 34.5142 112.761 34.5142 102.342C34.5142 91.9226 42.9597 83.4761 53.3788 83.4761C63.798 83.4761 72.2435 91.9226 72.2435 102.342C72.2435 112.76 63.798 121.207 53.3788 121.207Z"
      fill="#DDDDDD"/>
    <path
      d="M27.9271 76.8901L27.9272 76.89C29.8941 74.9226 31.1949 72.7507 31.807 70.3317C32.3914 68.0223 32.3406 65.5175 31.679 62.791C34.1584 61.4787 36.7775 60.394 39.5041 59.5545C42.5554 64.5134 47.8929 67.8072 53.3788 67.8072C58.8658 67.8072 64.2033 64.5134 67.2536 59.5546C69.9822 60.3949 72.6013 61.4789 75.0797 62.7928C74.4176 65.5189 74.3668 68.0235 74.9514 70.3327C75.5636 72.7515 76.8647 74.9232 78.8316 76.8901C82.6477 80.7062 87.2519 83.0066 92.9279 81.6724C94.2411 84.1527 95.3251 86.7718 96.1656 89.4986C91.2436 92.4827 87.9135 96.8214 87.9135 102.342C87.9135 107.862 91.2436 112.2 96.1656 115.183C95.3252 117.911 94.2412 120.53 92.9279 123.01C87.2518 121.676 82.6476 123.977 78.8316 127.793L78.8315 127.794C76.8646 129.761 75.5641 131.933 74.9523 134.351C74.3681 136.66 74.4191 139.164 75.0808 141.89C72.6014 143.204 69.9822 144.288 67.2536 145.128C64.2033 140.17 58.8659 136.874 53.3788 136.874C47.8927 136.874 42.5562 140.17 39.5051 145.128C36.7777 144.289 34.1586 143.204 31.679 141.891C32.3406 139.165 32.3911 136.661 31.8066 134.352C31.1943 131.933 29.8936 129.762 27.9272 127.795L27.9271 127.794C25.9602 125.828 23.7886 124.527 21.3697 123.914C19.0604 123.33 16.5556 123.381 13.8291 124.043C12.5159 121.562 11.432 118.943 10.5917 116.216C15.5496 113.166 18.8442 107.828 18.8442 102.342C18.8442 96.8214 15.5141 92.4827 10.5921 89.4985C11.4325 86.7709 12.5165 84.1519 13.8297 81.6743C19.5058 83.0066 24.1109 80.7063 27.9271 76.8901ZM34.0142 102.342C34.0142 113.037 42.6845 121.707 53.3788 121.707C64.0742 121.707 72.7435 113.036 72.7435 102.342C72.7435 91.6465 64.0742 82.9761 53.3788 82.9761C42.6835 82.9761 34.0142 91.6465 34.0142 102.342Z"
      stroke="white" stroke-opacity="0.24"/>
  </g>
  <g clip-path="url(#clip1)">
    <path
      d="M146.469 72.8279C145.569 69.4692 146.926 66.2632 149.552 63.6069C148.489 61.8824 147.264 60.2858 145.897 58.8397C142.65 60.6891 139.457 60.0785 136.445 58.3395C133.433 56.6005 131.948 53.9683 131.927 50.2327C129.992 49.7703 127.997 49.5081 125.971 49.4503C124.983 53.053 122.244 56.0021 118.885 56.9022C115.526 57.8022 111.681 56.6172 109.023 53.9915C107.298 55.0536 105.702 56.2788 104.256 57.6457C106.105 60.8924 106.136 63.9141 104.397 66.9268C102.658 69.9388 100.197 72.0643 96.4614 72.0872C95.9995 74.0215 95.7374 76.0165 95.6793 78.0419C99.2812 79.0296 102.059 81.1275 102.959 84.4862C103.859 87.8449 102.674 91.6916 100.049 94.3479C101.112 96.073 102.336 97.6696 103.704 99.1157C106.95 97.2663 109.972 97.2361 112.984 98.9751C115.996 100.715 117.48 103.346 117.502 107.082C119.438 107.543 121.433 107.806 123.458 107.863C124.447 104.261 127.184 101.311 130.543 100.411C133.902 99.5105 137.749 100.697 140.406 103.322C142.131 102.259 143.728 101.034 145.173 99.6662C143.325 96.4207 143.293 93.3998 145.032 90.3871C146.771 87.3751 149.231 85.2492 152.967 85.2275C153.429 83.2913 153.691 81.2964 153.749 79.2709C150.147 78.2838 147.369 76.1865 146.469 72.8279ZM127.853 90.3717C121.384 92.1051 114.734 88.2656 113 81.7958C111.267 75.326 115.106 68.676 121.575 66.9424C128.045 65.2088 134.695 69.0485 136.428 75.5183C138.162 81.9875 134.323 88.6381 127.853 90.3717Z"
      fill="#DDDDDD"/>
    <path
      d="M104.83 67.1768L104.83 67.1767C105.738 65.6041 106.195 64.0077 106.172 62.367C106.15 60.8413 105.715 59.3065 104.882 57.7455C106.134 56.5935 107.498 55.5474 108.958 54.6213C111.711 57.1633 115.583 58.3048 119.014 57.3852C122.447 56.4655 125.229 53.5413 126.341 49.9636C128.071 50.0356 129.774 50.2593 131.435 50.6318C131.494 52.3999 131.884 53.9469 132.628 55.2788C133.429 56.7109 134.623 57.8647 136.195 58.7725C139.196 60.505 142.463 61.1945 145.795 59.464C146.948 60.7166 147.994 62.0804 148.921 63.5408C146.396 66.2224 145.058 69.4931 145.986 72.9573C146.914 76.4215 149.708 78.5844 153.235 79.6437C153.163 81.3724 152.939 83.0763 152.567 84.7375C148.816 84.9052 146.332 87.1365 144.599 90.1371L144.599 90.1372C143.692 91.7098 143.235 93.3061 143.258 94.9464C143.279 96.4718 143.715 98.0061 144.547 99.5665C143.295 100.719 141.932 101.765 140.47 102.692C137.718 100.151 133.846 99.0079 130.414 99.9276C126.982 100.847 124.201 103.773 123.088 107.35C121.359 107.279 119.655 107.054 117.995 106.682C117.935 104.914 117.545 103.368 116.801 102.036C116 100.604 114.806 99.4503 113.234 98.5421L113.234 98.5421C111.662 97.6343 110.066 97.177 108.425 97.1998C106.899 97.221 105.364 97.6569 103.803 98.4897C102.651 97.2371 101.605 95.8733 100.678 94.4123C103.22 91.6606 104.362 87.7887 103.442 84.3568C102.514 80.8926 99.72 78.7291 96.1928 77.6692C96.265 75.9405 96.4888 74.2367 96.8612 72.5771C100.612 72.4083 103.097 70.1776 104.83 67.1768ZM112.517 81.9252C114.322 88.6618 121.247 92.6596 127.983 90.8547C134.719 89.0496 138.716 82.1247 136.911 75.3889C135.106 68.6524 128.183 64.6543 121.446 66.4594C114.709 68.2645 110.712 75.1887 112.517 81.9252Z"
      stroke="white" stroke-opacity="0.24"/>
  </g>
  <g clip-path="url(#clip2)">
    <path
      d="M168.968 119.137C168.205 116.288 169.356 113.569 171.583 111.316C170.681 109.853 169.643 108.499 168.482 107.272C165.729 108.841 163.02 108.323 160.466 106.848C157.911 105.373 156.651 103.14 156.633 99.9717C154.992 99.5795 153.3 99.3571 151.581 99.308C150.743 102.364 148.42 104.865 145.571 105.629C142.722 106.392 139.46 105.387 137.206 103.16C135.743 104.061 134.389 105.1 133.162 106.259C134.731 109.013 134.757 111.576 133.282 114.132C131.807 116.687 129.72 118.49 126.551 118.509C126.159 120.15 125.937 121.842 125.887 123.56C128.943 124.398 131.299 126.177 132.063 129.026C132.826 131.875 131.82 135.138 129.593 137.391C130.495 138.854 131.534 140.208 132.694 141.435C135.448 139.866 138.011 139.841 140.566 141.316C143.12 142.791 144.379 145.023 144.398 148.192C146.04 148.583 147.732 148.806 149.45 148.854C150.289 145.799 152.61 143.297 155.459 142.533C158.309 141.77 161.571 142.776 163.825 145.003C165.289 144.101 166.643 143.062 167.869 141.902C166.301 139.149 166.274 136.587 167.749 134.031C169.224 131.476 171.311 129.673 174.48 129.655C174.871 128.012 175.094 126.32 175.143 124.602C172.088 123.765 169.731 121.986 168.968 119.137ZM153.178 134.018C147.691 135.488 142.05 132.232 140.579 126.744C139.109 121.256 142.365 115.616 147.853 114.145C153.341 112.675 158.981 115.931 160.451 121.419C161.922 126.907 158.666 132.548 153.178 134.018Z"
      fill="#DDDDDD"/>
    <path
      d="M133.715 114.382L133.715 114.382C134.491 113.038 134.883 111.67 134.863 110.263C134.845 108.972 134.481 107.675 133.788 106.36C134.821 105.415 135.943 104.554 137.143 103.789C139.491 105.933 142.779 106.895 145.7 106.112C148.622 105.329 150.989 102.853 151.95 99.8217C153.373 99.8843 154.775 100.068 156.142 100.372C156.199 101.857 156.532 103.162 157.162 104.289C157.848 105.517 158.872 106.505 160.216 107.281C162.759 108.75 165.541 109.346 168.38 107.896C169.326 108.929 170.186 110.051 170.952 111.251C168.825 113.53 167.694 116.313 168.485 119.267C169.276 122.22 171.648 124.065 174.629 124.974C174.566 126.396 174.382 127.798 174.079 129.166C170.895 129.33 168.785 131.238 167.316 133.781L167.316 133.781C166.541 135.125 166.148 136.493 166.168 137.899C166.186 139.191 166.551 140.487 167.243 141.801C166.211 142.747 165.089 143.608 163.888 144.373C161.54 142.23 158.252 141.267 155.33 142.05C152.408 142.833 150.043 145.31 149.081 148.341C147.659 148.279 146.257 148.094 144.889 147.792C144.832 146.307 144.499 145.002 143.869 143.875C143.183 142.647 142.159 141.659 140.816 140.883L140.816 140.883C139.472 140.107 138.105 139.714 136.697 139.734C135.406 139.752 134.11 140.116 132.795 140.809C131.849 139.776 130.988 138.654 130.223 137.454C132.367 135.106 133.328 131.818 132.546 128.897C131.754 125.943 129.383 124.098 126.401 123.188C126.464 121.766 126.648 120.364 126.951 118.998C130.135 118.833 132.246 116.926 133.715 114.382ZM140.096 126.873C141.638 132.628 147.553 136.043 153.307 134.501C159.062 132.959 162.476 127.044 160.934 121.29C159.392 115.535 153.478 112.12 147.723 113.662C141.969 115.204 138.554 121.119 140.096 126.873Z"
      stroke="white" stroke-opacity="0.24"/>
  </g>
  <defs>
    <clipPath id="clip0">
      <rect width="86.7577" height="86.7577" fill="white" transform="translate(10 58.9629)"/>
    </clipPath>
    <clipPath id="clip1">
      <rect width="55.7728" height="55.7728" fill="white" transform="translate(90.5605 58.9384) rotate(-15)"/>
    </clipPath>
    <clipPath id="clip2">
      <rect width="47.3072" height="47.3072" fill="white" transform="translate(121.546 107.356) rotate(-15)"/>
    </clipPath>
  </defs>
</svg>
