<svg width="160" height="160" viewBox="0 0 44 44" fill="none" xmlns="http://www.w3.org/2000/svg">
  <path
    d="M3.00922 15.7721L15.4091 3.37219L27.8354 15.7985L15.4355 28.1984C11.9994 31.6345 6.43655 31.6345 3.00922 28.1984C-0.418112 24.7622 -0.418112 19.1994 3.00922 15.7721Z"
    fill="url(#paint0_radial_4990_21800)"></path>
  <path
    d="M15.4092 15.7984C18.8454 19.2345 24.4082 19.2345 27.8355 15.7984C31.2628 12.3622 31.2716 6.79943 27.8355 3.3721C24.3994 -0.055233 18.8366 -0.055233 15.4092 3.3721C11.9819 6.79943 11.9731 12.371 15.4092 15.7984Z"
    fill="white"></path>
  <path
    d="M27.8355 15.7984L15.4355 28.1983L27.8618 40.6246L40.2617 28.2247C43.6978 24.7886 43.6978 19.2258 40.2617 15.7984C36.8256 12.3711 31.2628 12.3711 27.8355 15.7984Z"
    fill="url(#paint1_radial_4990_21800)"></path>
  <path
    d="M27.8618 28.1983C31.2979 31.6344 31.2979 37.1973 27.8618 40.6246C24.4256 44.0519 18.8628 44.0607 15.4355 40.6246C12.0082 37.1885 12.0082 31.6257 15.4355 28.1983C18.8716 24.7622 24.4344 24.7622 27.8618 28.1983Z"
    fill="white"></path>
  <defs>
    <radialGradient id="paint0_radial_4990_21800" cx="0" cy="0" r="1" gradientUnits="userSpaceOnUse"
                    gradientTransform="translate(21.5134 9.37802) rotate(135) scale(26.2323)">
      <stop stop-color="white"></stop>
      <stop offset="1" stop-color="white" stop-opacity="0"></stop>
    </radialGradient>
    <radialGradient id="paint1_radial_4990_21800" cx="0" cy="0" r="1" gradientUnits="userSpaceOnUse"
                    gradientTransform="translate(21.4348 34.313) rotate(-45) scale(26.2323)">
      <stop stop-color="white"></stop>
      <stop offset="1" stop-color="white" stop-opacity="0"></stop>
    </radialGradient>
  </defs>
</svg>
